<!--
  - Copyright (c) 2024 Pointyware. Use of this software is governed by the GPL-3.0 license.
  -->

<svg width="48" height="48" viewBox="0 0 48 48" fill="none" xmlns="http://www.w3.org/2000/svg">
<rect width="48" height="48" fill="white"/>
<path d="M24 15.1233L19.3953 16.137L15.814 10.0548L9.16279 6H4.55814L2 13.0959L4.55814 19.1781V22.726L7.62791 24.2466H11.2093L9.16279 29.3151L8.65116 33.3699L11.7209 32.3562L9.67442 34.8904L14.2791 35.9041L16.8372 37.4247L18.3721 39.9589L20.9302 41.9863L24 43" stroke="black"/>
<path d="M24 15.1233L28.6047 16.137L32.186 10.0548L38.8372 6H43.4419L46 13.0959L43.4419 19.1781V22.726L40.3721 24.2466H36.7907L38.8372 29.3151L39.3488 33.3699L36.2791 32.3562L38.3256 34.8904L33.7209 35.9041L31.1628 37.4247L29.6279 39.9589L27.0698 41.9863L24 43" stroke="black"/>
</svg>
